<svg width="1400" height="900" viewBox="0 0 1400 900" fill="none" xmlns="http://www.w3.org/2000/svg">
  <rect width="1400" height="900" fill="#0B1220"/>
  <text x="80" y="90" fill="#E2E8F0" font-family="Segoe UI, Arial, sans-serif" font-size="48" font-weight="700">Support Matrix</text>
  <text x="80" y="132" fill="#93C5FD" font-family="Segoe UI, Arial, sans-serif" font-size="26">Official / Community / Manual paths</text>

  <rect x="80" y="170" width="1240" height="660" rx="18" fill="#0F172A" stroke="#334155"/>

  <text x="120" y="225" fill="#E5E7EB" font-family="Segoe UI, Arial, sans-serif" font-size="28" font-weight="700">Host</text>
  <text x="560" y="225" fill="#E5E7EB" font-family="Segoe UI, Arial, sans-serif" font-size="28" font-weight="700">Level</text>
  <text x="760" y="225" fill="#E5E7EB" font-family="Segoe UI, Arial, sans-serif" font-size="28" font-weight="700">Path</text>

  <g font-family="Segoe UI, Arial, sans-serif" font-size="24" fill="#E5E7EB">
    <text x="120" y="295">Claude Code</text>
    <text x="120" y="355">VS Code</text>
    <text x="120" y="415">Cursor</text>
    <text x="120" y="475">Windsurf</text>
    <text x="120" y="535">OpenClaw</text>
    <text x="120" y="595">Zed</text>
    <text x="120" y="655">Neovim</text>
    <text x="120" y="715">JetBrains</text>
  </g>

  <g font-family="Segoe UI, Arial, sans-serif" font-size="24">
    <text x="560" y="295" fill="#34D399">Official (repo)</text>
    <text x="560" y="355" fill="#93C5FD">Community</text>
    <text x="560" y="415" fill="#93C5FD">Community</text>
    <text x="560" y="475" fill="#93C5FD">Community</text>
    <text x="560" y="535" fill="#93C5FD">Community</text>
    <text x="560" y="595" fill="#D1D5DB">Manual</text>
    <text x="560" y="655" fill="#D1D5DB">Manual</text>
    <text x="560" y="715" fill="#D1D5DB">Manual</text>
  </g>

  <g font-family="Consolas, Menlo, monospace" font-size="22" fill="#E5E7EB">
    <text x="760" y="295">plugin.json + .mcp.json + skill</text>
    <text x="760" y="355">integrations/vscode/mcp.json</text>
    <text x="760" y="415">integrations/cursor/mcp.json</text>
    <text x="760" y="475">integrations/windsurf/mcp_config.json</text>
    <text x="760" y="535">integrations/openclaw/*</text>
    <text x="760" y="595">integrations/zed/settings.json</text>
    <text x="760" y="655">integrations/neovim/README.md</text>
    <text x="760" y="715">integrations/jetbrains/README.md</text>
  </g>
</svg>
